PathFileType	4	(X/Y/Z)	C:/Users/beibeiliu/ov580/test_trc/User2\sequence.3_training_dense_right.trc
DataRate	CameraRate	NumFrames	NumMarkers	Units	OrigDataRate	OrigDataStartFrame	OrigNumFrames
120	120	25	19	mm	120	86	343
Frame#	Time	ThumbCMC			ThumbMCP			ThumbIP			ThumbTip			IndexMCP			IndexPIP			IndexTip			MiddleMCP			MiddlePIP			MiddleTip			RingMCP			RingPIP			RingTip			PinkyMCP			PinkyPIP			PinkyTip			BackHand1			BackHand2			BackHand3	
		X0	Y0	Z0	X1	Y1	Z1	X2	Y2	Z2	X3	Y3	Z3	X4	Y4	Z4	X5	Y5	Z5	X6	Y6	Z6	X7	Y7	Z7	X8	Y8	Z8	X9	Y9	Z9	X10	Y10	Z10	X11	Y11	Z11	X12	Y12	Z12	X13	Y13	Z13	X14	Y14	Z14	X15	Y15	Z15	X16	Y16	Z16	X17	Y17	Z17	X18	Y18	Z18	
85	0.708333	68.7184	14.2663	66.1666	45.7463	3.16455	38.4546	34.2488	4.63111	4.50708	38.1966	9.58675	-22.4604	32.6425	54.3126	10.596	24.3718	27.6745	-7.80301	45.6769	7.63875	16.5216	45.9907	48.1599	-9.01072	46.2554	15.984	-17.3314	67.9696	9.97968	20.7324	69.2921	33.3612	-20.8644	65.1662	5.18589	-15.0231	84.534	8.79834	17.9856	87.5072	25.3785	-20.2964	85.5321	-3.00178	-6.99794	96.6821	11.7788	22.1975	106.89	56.9159	30.0232	130.445	44.3828	54.8944	94.0904	50.4456	63.1325	
86	0.716667	69.9583	15.4899	61.6261	48.5536	2.82278	33.3067	36.86	5.25734	-3.91933	46.4735	8.885	-29.9568	40.3899	55.4775	-0.859042	34.1224	30.615	-15.9255	55.4857	9.75292	11.351	59.6414	49.648	-16.5815	55.9406	13.8114	-22.1537	72.806	11.3943	16.08	78.3675	30.269	-26.3503	73.6468	2.46464	-15.5404	86.7206	10.9793	17.7881	97.6056	22.9229	-22.1342	90.9895	-4.1964	-5.48565	102.312	7.9928	21.1652	114.333	54.8853	23.8633	135.954	45.5455	52.8527	96.2049	53.2035	57.3411	
87	0.725	75.8167	16.638	56.824	55.5934	8.24022	22.1365	46.7255	5.63057	-13.8181	62.7963	10.3416	-39.5185	55.6122	55.4987	-12.6169	47.4805	29.1225	-25.5641	58.7221	9.88657	3.92423	71.547	46.6615	-26.35	64.9149	13.667	-27.4991	82.6914	9.4622	8.26116	90.3965	27.7356	-30.682	86.9105	-1.20136	-20.2024	95.7446	7.95064	12.9769	111.388	16.2113	-26.3677	101.941	-6.83858	-6.6148	115.229	8.31098	20.4176	127.75	52.5904	20.7003	140.543	40.8756	48.9718	104.828	50.3865	53.0847	
88	0.733333	80.5662	17.8627	50.0507	60.9167	6.6863	14.4027	60.8891	3.80196	-20.3816	80.0209	4.97273	-43.6899	72.0696	52.3852	-23.1736	64.6064	21.8406	-33.9635	71.379	12.3193	1.06685	91.1191	41.2998	-36.3274	81.5253	9.06213	-36.1063	90.3712	8.67732	5.38099	102.094	21.1427	-34.5728	96.2606	-5.31255	-20.8529	108.976	7.33118	12.2378	122.44	11.7359	-27.7018	112.626	-12.6802	-5.41789	123.359	7.83443	20.699	133.945	48.2006	14.1516	145.313	39.2586	46.7135	110.548	51.8559	45.7566	
89	0.741667	85.3421	20.9276	38.0596	71.1266	5.62575	6.53695	72.3109	0.374874	-31.0625	92.6879	-2.45499	-48.7247	84.2498	47.6989	-32.1755	74.1841	19.8606	-41.6785	85.5348	9.94504	-4.97109	105.662	36.4883	-40.4529	92.9624	3.08694	-38.4955	98.925	8.92484	1.30545	116.417	15.2103	-38.7307	110.268	-10.1695	-26.0255	112.983	3.90387	7.96773	136.451	3.04108	-29.4745	121.231	-15.7128	-8.98565	129.158	0.143683	18.8134	147.444	43.4109	13.5824	154.341	35.7175	44.6667	115.514	53.2334	38.2408	
90	0.75	88.3893	18.4237	34.4421	77.6654	3.4745	-2.46482	84.6713	-3.89533	-38.8369	107.025	-8.05262	-56.6874	92.7273	42.709	-40.9887	90.4539	12.8768	-47.4295	91.3925	6.59822	-11.8747	118.001	31.965	-44.1662	104.899	-1.77695	-42.3472	108.65	2.30733	-3.4215	132.483	10.8378	-40.2364	119.273	-14.8225	-23.9666	123.909	2.22724	7.45694	147.009	0.80382	-28.7546	133.545	-21.6179	-7.58358	136.031	-2.89031	16.2925	151.061	43.0424	9.54703	154.429	35.1697	49.099	119.36	52.3564	34.1587	
91	0.758333	95.9602	17.2378	29.7048	84.4125	-0.466929	-6.59124	93.9693	-12.9889	-35.1944	115.755	-16.6563	-56.4974	105.91	34.2505	-45.4713	98.1298	2.50276	-47.7136	99.4672	3.05641	-12.8989	126.3	23.4956	-47.7368	115.234	-10.8469	-40.2442	115.632	0.545638	-3.07445	139.65	4.10645	-41.4617	130.055	-21.9329	-22.9546	128.031	-2.96525	5.40504	158.76	-5.45997	-28.3386	139.967	-24.2763	-5.78608	141.429	-5.76004	17.1864	158.269	41.4343	7.62658	160.417	36.1754	46.2011	123.914	48.7207	31.9742	
92	0.766667	97.274	14.6283	25.4174	92.7878	-6.38727	-4.30397	99.8094	-21.4034	-36.5005	125.638	-24.3689	-50.0886	109.547	25.527	-47.7822	105.041	-7.37912	-47.8649	106.645	-3.04465	-12.4019	132.875	15.8163	-48.9613	121.239	-17.3721	-40.1002	124.388	-6.56874	-3.12868	145.949	-2.19883	-39.5854	137.399	-27.5837	-25.4815	135.933	-5.50993	9.42823	162.522	-13.1037	-26.9515	145.771	-29.182	-7.3087	144.29	-7.26211	19.8149	162.655	38.2561	8.26258	163.61	35.9856	46.7795	126.83	45.1512	27.863	
93	0.775	99.5399	12.4652	26.5109	91.9541	-13.4698	-2.1993	105.952	-28.0398	-35.3756	128.634	-35.4803	-50.0752	114.2	16.7377	-47.5928	108.173	-15.499	-47.2378	111.463	-8.37473	-9.42861	135.155	9.1884	-47.0812	129.214	-27.2797	-34.6719	124.242	-9.09641	-0.0388508	150.94	-10.6772	-36.6898	141.199	-32.9338	-20.9608	134.071	-14.211	8.47097	166.28	-16.7484	-22.0968	150.318	-35.051	-0.456032	147.641	-10.667	22.9832	166.659	34.6731	6.40996	160.149	36.023	47.1602	128.6	46.1881	22.7257	
94	0.783333	100.26	9.85277	31.4346	91.2935	-18.0834	4.20508	104.683	-37.5003	-28.8634	132.719	-42.6327	-40.7537	116.851	5.67392	-46.074	111.997	-25.6235	-39.3623	107.802	-15.2133	-5.93276	136.663	-1.89936	-45.5961	128.475	-34.1649	-29.2597	125.052	-12.8034	4.65112	153.095	-18.7687	-33.6884	143.438	-39.6044	-13.9851	138.152	-18.5195	15.2748	165.928	-18.8703	-17.9365	148.786	-37.3148	3.78499	146.81	-11.229	27.7156	166.003	30.091	6.54127	163.564	35.902	40.4461	127.061	44.7056	24.8414	
95	0.791667	95.8969	8.8771	31.5945	87.1676	-21.6941	8.29767	102.679	-44.9688	-22.0516	127.727	-49.9416	-29.4045	111.14	-0.924909	-41.9241	108.667	-33.265	-32.3339	106.225	-19.1478	-0.21736	137.197	-10.3325	-39.7359	124.808	-41.8913	-23.6974	124.251	-19.2749	10.0963	148.986	-24.1937	-28.1923	138.148	-45.2242	-7.32927	134.584	-20.8164	20.1202	162.384	-28.0422	-13.1857	146.404	-41.7697	13.7027	145.532	-16.7015	31.409	162.458	27.909	6.89985	162.458	36.1255	40.9502	129.74	40.3376	19.9641	
96	0.8	92.0683	11.0905	33.1021	87.3244	-21.0877	13.1142	95.3917	-47.5486	-8.37497	120.771	-58.5036	-20.0154	105.644	-10.4154	-37.9888	98.754	-39.2023	-25.5277	105.166	-22.6146	7.21369	126.978	-23.5915	-36.2115	120.335	-48.9538	-13.1025	116.733	-23.8159	16.1351	145.803	-33.3921	-20.1349	130.673	-49.4937	5.67583	126.267	-19.6157	25.0259	161.211	-37.3493	-5.40868	137.869	-43.7705	20.3795	138.813	-20.9746	39.3527	159.204	21.7826	8.66117	158.678	34.906	38.997	126.911	39.8673	22.5451	
97	0.808333	87.3125	11.7719	37.8426	79.5844	-19.8575	22.4033	82.3258	-51.4299	2.29545	110.425	-62.7134	-8.25327	100.347	-17.593	-30.824	92.3911	-43.2045	-13.4045	97.1535	-21.5862	14.8257	117.375	-30.505	-30.2236	107.096	-52.2772	-5.65377	109.814	-22.4509	23.0775	134.256	-42.9834	-13.0783	124.574	-54.9492	12.0613	123.96	-24.1542	32.9262	149.15	-41.1642	0.629425	133.263	-48.2922	31.6412	133.959	-19.4946	47.204	156.238	15.0701	7.04741	157.357	33.7316	37.0573	122.258	37.314	20.0423	
98	0.816667	82.4961	15.1057	46.771	68.3865	-18.8425	34.2291	74.2188	-49.0565	14.2514	97.5548	-66.0216	-0.0548082	89.5807	-21.1731	-23.0323	83.3872	-45.7528	-4.01077	85.593	-19.7532	23.4719	108.413	-34.6333	-22.9984	97.1111	-54.6044	6.18777	99.6068	-25.6312	29.3979	125.079	-43.7856	-7.36072	112.956	-56.4952	18.5436	114.175	-26.4321	37.9414	143.271	-46.4899	6.49603	120.17	-48.5268	35.3561	124.138	-21.9034	50.0164	146.308	13.2132	10.1739	154.232	31.6938	40.4095	115.074	35.0861	20.5676	
99	0.825	77.9169	19.5976	49.6364	62.3886	-13.5098	40.6964	61.8788	-46.5645	20.3992	82.7269	-64.8148	7.07617	74.2441	-18.8411	-15.9029	66.3401	-42.5034	2.5422	78.06	-16.6691	28.7566	92.1605	-33.8069	-17.1193	83.806	-53.0709	10.5599	89.5857	-21.8255	34.9058	109.853	-46.2688	-0.940182	101.152	-54.9504	28.0977	107.35	-23.9621	43.7332	128.092	-50.726	11.7541	113.049	-51.6418	42.9307	112.818	-22.1083	57.0447	139.698	7.78493	9.92286	151.838	28.8141	39.2046	111.516	34.9789	24.8163	
100	0.833333	76.4596	25.0574	53.8857	52.3073	-5.33425	45.1912	47.4402	-37.6046	29.4722	68.9651	-55.8857	14.8592	66.5452	-15.2109	-11.7775	54.2424	-36.6607	9.92208	68.4887	-15.2713	32.9245	82.5534	-30.8452	-10.9289	71.2837	-48.2305	18.0273	81.5842	-17.8384	38.9368	97.9149	-43.9549	2.69553	84.4517	-50.6296	32.3498	97.1842	-16.418	45.9491	114.624	-47.4573	14.738	96.8229	-48.8123	43.0406	104.742	-21.5111	61.2214	130.989	8.06584	13.5499	147.714	24.9324	39.6327	110.226	37.3819	25.7022	
101	0.841667	71.1792	31.6732	52.288	49.6367	3.25326	44.5454	35.7164	-28.0606	27.1524	48.2852	-49.9835	16.837	53.2995	-5.96641	-11.2516	40.7257	-25.5161	9.53937	60.1118	-4.38464	34.8624	69.8355	-26.2511	-9.5512	55.5385	-38.8776	17.7763	73.0672	-7.15856	39.9232	80.9377	-38.4609	4.79991	70.5125	-42.9788	34.3339	85.8213	-11.7466	46.9904	100.311	-43.1467	16.6319	83.5903	-42.1606	46.9229	93.1591	-16.0503	62.9192	127.749	6.29858	16.7697	141.657	23.5661	42.6756	109.82	37.5576	26.2593	
102	0.85	73.6514	37.5642	52.6787	43.1208	14.9172	45.5052	25.8408	-15.4152	27.7342	36.1503	-38.4691	19.2538	51.2028	3.96968	-11.3762	33.5081	-15.074	7.97397	52.9001	3.57662	34.3779	62.7354	-17.5179	-9.75819	45.5695	-29.53	20.6343	70.2502	0.0467893	39.1779	73.2023	-33.3473	5.7937	57.6036	-35.3443	33.6889	77.168	-7.00083	47.6696	84.7624	-41.7677	18.6416	71.3101	-36.795	47.5449	85.4072	-12.8069	62.535	120.157	4.72533	12.3407	141.433	20.1813	42.5762	110.358	38.5831	26.397	
103	0.858333	71.3099	46.3534	52.9851	41.2529	24.4504	43.7138	22.8355	-2.02499	27.1459	27.9913	-29.6455	12.645	46.7939	8.76129	-12.3682	26.6282	-1.63574	10.0646	47.547	16.7943	33.0137	57.3025	-12.0535	-9.5441	35.8911	-17.0859	18.6241	59.601	6.84752	37.6422	60.7497	-27.3829	5.11187	48.1708	-28.3725	32.1288	70.7653	-3.47042	47.0086	74.0724	-39.3929	19.3997	59.2601	-30.0999	45.7002	76.5759	-6.50687	61.1858	117.649	2.34873	13.9743	136.839	18.246	42.3238	108.202	43.4238	26.3347	
104	0.866667	75.1108	48.7317	50.8811	37.3123	35.0173	38.186	19.7364	8.7521	21.8597	20.992	-16.5249	12.6632	45.8346	21.4691	-16.1882	22.3301	10.1342	6.51862	47.5248	21.9587	29.2844	49.3096	-2.23469	-13.8262	30.8557	-9.78502	15.1644	58.3795	11.0882	35.8618	55.3774	-22.6416	3.58821	38.8714	-16.5581	30.676	67.5721	1.33579	45.4445	67.7059	-33.7351	17.0244	51.6123	-22.898	45.7178	74.695	2.33634	57.2271	115.903	3.3056	16.95	134.156	13.9758	45.5299	110.591	38.982	27.4948	
105	0.875	75.7668	55.045	46.153	38.455	43.2087	34.459	15.6145	18.872	16.0328	18.4289	-8.66412	6.50508	45.9874	26.4088	-19.3705	23.1684	19.5993	0.693002	45.2375	30.038	25.5462	50.0251	2.86247	-15.6298	27.6629	-1.21759	8.87111	56.0676	18.6328	32.3156	48.9286	-14.1786	0.813397	34.5171	-7.07724	26.9106	59.7324	9.51985	42.631	61.1868	-27.6474	15.7907	46.3469	-11.283	43.2954	70.31	5.35946	54.0021	111.377	2.9226	15.4426	131.001	15.2336	44.3957	109.319	42.4823	24.0286	
106	0.883333	75.8918	62.6615	44.0071	40.6101	50.9073	29.8269	18.5358	27.1509	9.29183	17.6854	1.55704	2.29608	51.3473	29.3114	-22.1875	27.263	23.6286	-6.39325	49.6866	35.7748	22.1598	52.1318	5.95724	-18.824	28.5015	6.17649	6.68833	59.6866	25.4025	28.8605	50.3054	-8.70661	-4.25557	33.3067	-2.85506	19.6852	57.7323	15.3095	37.4386	61.3434	-24.3033	13.2972	44.7817	-8.01096	41.3169	68.2968	6.044	52.9029	113.676	1.08923	15.1336	131.505	11.6333	46.7607	112.864	43.1219	22.3872	
107	0.891667	78.0368	65.1211	42.4903	46.5708	51.811	24.3134	23.8982	32.5223	1.15419	21.2004	6.87432	-9.14029	58.7957	37.1259	-28.8008	29.9216	33.8958	-11.7808	54.1921	43.2172	16.4241	56.4163	12.9904	-26.1814	31.6916	14.1035	-2.79958	58.2347	25.3328	24.4455	55.1767	-3.55945	-9.57405	35.6123	0.69355	16.5443	59.7845	19.0468	32.2945	59.5438	-19.4587	8.29138	42.4714	-4.31702	30.6115	68.4281	14.1484	45.1288	114.482	3.82313	16.0365	129.707	15.5187	44.4992	116.368	45.9041	25.026	
108	0.9	83.1592	65.2518	39.9808	49.9825	57.9129	15.4811	27.097	41.3947	-7.31841	29.0571	12.4246	-17.1736	70.1366	40.0689	-33.1633	38.5671	36.5747	-19.1157	57.788	47.8951	10.1126	70.0842	18.6766	-29.864	37.9086	14.6632	-11.3929	60.6151	32.28	17.5129	58.7343	-0.841296	-15.282	38.7961	4.73438	7.78881	65.008	20.9997	29.9285	60.9592	-14.4211	2.49132	45.1393	1.56529	22.1863	69.5569	16.6811	42.3196	117.341	5.03068	17.7519	130.884	18.013	46.3146	122.222	47.1075	24.8531	
109	0.908333	87.7047	70.7903	34.9821	58.7291	63.2988	11.6862	37.8561	43.8361	-16.7751	38.5507	16.4955	-25.1848	82.3731	44.8122	-37.382	49.9334	41.0348	-31.7467	63.451	50.5061	4.5619	75.5511	17.1629	-35.1838	46.0292	23.656	-20.738	65.5177	33.4783	13.1199	67.6451	-0.447749	-19.1971	44.2006	7.27255	-2.28988	66.0492	24.3463	23.296	68.6616	-9.92015	-4.21646	48.8273	6.68166	17.8935	72.6095	20.2732	34.7692	121.421	8.13018	17.4735	133.159	15.4984	49.019	124.922	47.1879	27.6362	
